<svg xmlns="http://www.w3.org/2000/svg" viewBox="0 0 64 64" aria-labelledby="title"
aria-describedby="desc" role="img" xmlns:xlink="http://www.w3.org/1999/xlink"
width="256" height="256">
  <title>Error Cart</title>
  <desc>A color styled icon from Orion Icon Library.</desc>
  <circle data-name="layer3"
  cx="20" cy="57" r="4" fill="#e2c08d"></circle>
  <circle data-name="layer3" cx="46" cy="57" r="4" fill="#e2c08d"></circle>
  <path data-name="layer2" fill="#e0bc85" d="M30 33L46 3l16 30H30z"></path>
  <path data-name="layer1" fill="#f1e2cb" d="M34.3 25H12l6 24h32l5.2-16H30l4.3-8z"></path>
  <path data-name="opacity" fill="#000064" opacity=".15" d="M53.9 37l1.3-4H30l4.3-8h-1.9L26 37h27.9z"></path>
  <path data-name="stroke" fill="none" stroke="#78551f" stroke-linecap="round"
  stroke-linejoin="round" stroke-width="2" d="M34.3 25H12M2 9h6l10 40h32l5.2-16"></path>
  <circle data-name="stroke" cx="20" cy="57" r="4" fill="none" stroke="#78551f"
  stroke-linecap="round" stroke-linejoin="round" stroke-width="2"></circle>
  <circle data-name="stroke" cx="46" cy="57" r="4" fill="none"
  stroke="#78551f" stroke-linecap="round" stroke-linejoin="round" stroke-width="2"></circle>
  <path data-name="stroke" fill="none" stroke="#78551f" stroke-linecap="round"
  stroke-linejoin="round" stroke-width="2" d="M30 33L46 3l16 30H30zm16-18v6"></path>
  <circle data-name="stroke" cx="46" cy="26" r="1" fill="none" stroke="#78551f"
  stroke-linecap="round" stroke-linejoin="round" stroke-width="2"></circle>
</svg>